<svg width="133" height="43" viewBox="0 0 133 43" fill="none" xmlns="http://www.w3.org/2000/svg">
<path d="M123.893 32.3678C123.209 30.8234 123.987 28.9651 125.675 29.0019C126.586 29.0217 127.494 29.1964 128.352 29.5259C130.183 30.2286 131.642 31.5785 132.411 33.2811C133.18 34.9838 133.197 36.9012 132.457 38.6152C131.717 40.3291 130.282 41.7006 128.463 42.4306C126.644 43.1606 124.59 43.1898 122.748 42.5119C120.907 41.834 119.427 40.5039 118.632 38.8118C117.836 37.1197 117.79 35.2027 118.503 33.479C118.867 32.6 119.413 31.8077 120.1 31.1421C121.232 30.0462 122.972 30.7245 123.653 32.1452L124.599 34.1203C124.817 34.5742 124.548 35.1226 124.356 35.5878V35.5878C124.239 35.8696 124.247 36.1831 124.377 36.4598C124.507 36.7365 124.749 36.954 125.05 37.0648C125.351 37.1757 125.687 37.1709 125.985 37.0515C126.282 36.9322 126.517 36.7079 126.638 36.4276C126.759 36.1474 126.756 35.8338 126.63 35.5554C126.504 35.277 126.266 35.0563 125.966 34.9414V34.9414C125.467 34.7496 124.862 34.5575 124.645 34.0681L123.893 32.3678Z" fill="#E9E9E9"/>
<path d="M104.948 42.1473C103.292 42.1473 101.948 40.8042 101.948 39.1473V19.5265C101.948 17.9317 103.241 16.6389 104.836 16.6389H105.119C106.417 16.6389 107.512 17.6083 107.669 18.8977L107.933 21.075C107.939 21.1215 107.978 21.1565 108.025 21.1565V21.1565C108.059 21.1565 108.091 21.1375 108.107 21.1077C109.938 17.7625 112.715 16 115.357 16C115.608 16 115.841 16.0061 116.059 16.0184C117.436 16.0959 118.142 17.4981 117.873 18.8511L117.722 19.6102C117.431 21.0729 115.979 21.8866 114.487 21.8866V21.8866C112.614 21.8866 110.326 23.1274 108.886 26.436C108.74 26.773 108.675 27.1402 108.675 27.5077V39.1473C108.675 40.8042 107.332 42.1473 105.675 42.1473H104.948Z" fill="#34D399"/>
<path d="M90.1098 41.7862C82.9252 41.7862 77.3423 36.8579 77.3423 28.4159C77.3423 20.1108 83.1998 15 89.2403 15C96.3334 15 99.9485 20.1108 99.9485 27.1838C99.9485 27.4199 99.9438 27.6528 99.9353 27.8798C99.8824 29.2928 98.6641 30.2868 97.2502 30.2868H87.2955C85.4712 30.2868 83.9933 31.9796 84.9441 33.5365C86.197 35.5884 88.3326 36.6297 90.9792 36.6297C92.2034 36.6297 93.3466 36.404 94.4667 35.9813C95.7628 35.4921 97.2974 35.8726 97.9556 37.0916V37.0916C98.5427 38.1789 98.2232 39.5519 97.1172 40.1028C94.9739 41.1704 92.5284 41.7862 90.1098 41.7862ZM84.9229 22.5764C83.908 24.0994 85.391 25.8149 87.2213 25.8149H91.2283C92.8852 25.8149 94.3522 24.41 93.7308 22.8741C93.0358 21.1561 91.6035 20.1565 89.3776 20.1565C87.6169 20.1565 85.9924 20.9715 84.9229 22.5764Z" fill="#34D399"/>
<path d="M61.1451 41.5085C59.8648 41.5085 58.7256 40.696 58.3087 39.4855L51.5891 19.977C50.9181 18.029 52.3653 16 54.4255 16H54.7866C56.1205 16 57.2941 16.8807 57.667 18.1614L60.7444 28.7314C61.4211 31.2056 62.0978 33.7685 62.7745 36.3327C62.7917 36.3979 62.8507 36.4433 62.9181 36.4433V36.4433C62.9855 36.4433 63.0445 36.3979 63.0617 36.3327C63.7384 33.7685 64.4151 31.2056 65.0918 28.7314L68.21 18.1519C68.5861 16.8759 69.7574 16 71.0876 16H71.1716C73.2217 16 74.6679 18.0105 74.0159 19.9542L67.4713 39.4626C67.0613 40.6849 65.9162 41.5085 64.6271 41.5085H61.1451Z" fill="#34D399"/>
<path d="M34.3078 41.7862C29.7316 41.7862 26.7571 38.5919 26.7571 34.2112C26.7571 29.3039 30.3822 26.4835 38.6794 25.1439C40.251 24.8901 41.6049 23.404 40.7607 22.0543C40.1156 21.023 38.9895 20.3846 37.145 20.3846C35.5619 20.3846 33.9992 20.8289 32.4432 21.5428C31.1252 22.1476 29.519 21.7361 28.8276 20.4614V20.4614C28.181 19.2692 28.5791 17.7647 29.7949 17.1635C32.3389 15.9056 35.2221 15 38.3805 15C44.8787 15 48.2193 18.8331 48.2193 26.2712V38.1473C48.2193 39.8042 46.8761 41.1473 45.2193 41.1473H44.0974C43.3034 41.1473 42.6221 40.5816 42.4762 39.8012L42.2478 38.5796C42.2343 38.5074 42.1713 38.455 42.0978 38.455V38.455C42.0614 38.455 42.0263 38.468 41.9986 38.4916C39.7665 40.3895 37.2178 41.7862 34.3078 41.7862ZM36.5043 36.5385C38.0514 36.5385 39.2724 35.9767 40.549 34.9245C41.1755 34.4083 41.4923 33.6161 41.4923 32.8044V32.3119C41.4923 30.509 39.9002 29.0774 38.1492 29.5076C34.4653 30.4126 33.1637 31.859 33.1637 33.7093C33.1637 35.6714 34.5366 36.5385 36.5043 36.5385Z" fill="#34D399"/>
<path d="M12.3556 42C8.72265 42 5.14734 40.9071 2.17926 38.8811C0.874805 37.9907 0.786975 36.1756 1.79976 34.9637L1.85071 34.9028C2.95713 33.5788 4.94388 33.4883 6.43036 34.3644C8.3405 35.4901 10.4796 36.1591 12.4929 36.1591C16.0166 36.1591 17.847 34.6532 17.847 32.3259C17.847 29.8162 15.7878 28.9948 12.7675 27.7171L8.23709 25.8005C4.85073 24.4315 1.37285 21.648 1.37285 16.7653C1.37285 11.2438 6.26934 7 13.0878 7C16.1693 7 19.2507 7.95117 21.761 9.70018C22.9514 10.5296 23.0232 12.1889 22.1183 13.323V13.323C21.1263 14.5661 19.3325 14.7136 17.9222 13.9783C16.4484 13.2098 14.8815 12.7953 13.0878 12.7953C10.1133 12.7953 8.23709 14.1186 8.23709 16.309C8.23709 18.7275 10.6625 19.6402 13.5454 20.781L17.9843 22.6063C22.0571 24.2947 24.757 26.9413 24.757 31.7784C24.757 37.2999 20.1351 42 12.3556 42Z" fill="#34D399"/>
<path d="M43.7198 0.322933C45.0989 0.156128 46.3848 1.15213 46.2053 2.52962C46.1435 3.00332 46.048 3.47307 45.9189 3.93523C45.5635 5.20778 44.961 6.39787 44.1456 7.43755C43.3303 8.47724 42.3182 9.34615 41.1671 9.99469C40.016 10.6432 38.7484 11.0587 37.4367 11.2173C36.125 11.376 34.7949 11.2747 33.5224 10.9193C32.2498 10.5639 31.0597 9.96139 30.02 9.14608C28.9803 8.33076 28.1114 7.31864 27.4629 6.16752C27.2274 5.74946 27.0226 5.31604 26.8497 4.87072C26.3469 3.57577 27.3582 2.3019 28.7373 2.13509L29.2732 2.07028C30.3564 1.93927 31.3102 2.74772 31.8457 3.69827C32.17 4.27383 32.6045 4.77989 33.1243 5.18755C33.6441 5.5952 34.2392 5.89648 34.8755 6.07417C35.5117 6.25187 36.1768 6.30249 36.8326 6.22317C37.4885 6.14384 38.1223 5.93612 38.6978 5.61185C39.2734 5.28758 39.7794 4.85313 40.1871 4.33328C40.5948 3.81344 40.896 3.2184 41.0737 2.58212C41.3672 1.5313 42.1008 0.518757 43.1839 0.38775L43.7198 0.322933Z" fill="#E9E9E9"/>
</svg>
