<svg width="117" height="37" viewBox="0 0 117 37" fill="none" xmlns="http://www.w3.org/2000/svg">
<path d="M11.641 36.9988C8.41935 36.9988 5.24908 35.9927 2.62154 34.1283C1.47705 33.3162 1.40151 31.7099 2.28372 30.6185V30.6185C3.29365 29.3692 5.15467 29.285 6.53636 30.1046C8.19041 31.0858 10.0291 31.6662 11.7622 31.6662C14.874 31.6662 16.4905 30.2914 16.4905 28.1667C16.4905 25.8753 14.6719 25.1254 12.0047 23.9589L8.00386 22.2092C5.01334 20.9593 1.94199 18.418 1.94199 13.9603C1.94199 8.91938 6.26612 5.04492 12.2876 5.04492C15.0303 5.04492 17.7731 5.92709 19.9994 7.5481C21.0283 8.29727 21.0888 9.74694 20.3111 10.7545V10.7545C19.4171 11.9129 17.7589 12.047 16.4637 11.3662C15.1893 10.6964 13.8338 10.3358 12.2876 10.3358C9.66077 10.3358 8.00386 11.544 8.00386 13.5437C8.00386 15.7517 10.1457 16.585 12.6917 17.6265L16.6117 19.2929C20.2084 20.8344 22.5928 23.2507 22.5928 27.6667C22.5928 32.7077 18.5111 36.9988 11.641 36.9988Z" fill="#34D399"/>
<path d="M28.0263 36.9992C21.9303 36.9992 17.9679 32.587 17.9679 26.536C17.9679 19.3856 23.3416 15.443 35.7263 13.7252C36.773 13.58 37.5866 12.6568 37.3514 11.6266C36.783 9.13625 35.216 7.43765 31.8058 7.43765C29.2699 7.43765 26.773 8.32512 24.2839 9.68052C23.2591 10.2386 21.9554 9.8939 21.4146 8.85987L20.0445 6.24059C19.5606 5.31529 19.8668 4.16768 20.7765 3.65494C24.4578 1.57994 28.7233 0 33.4518 0C42.1081 0 46.5582 5.2946 46.5582 15.5686V34.1167C46.5582 35.2213 45.6627 36.1167 44.5582 36.1167H40.9146C39.9469 36.1167 39.118 35.424 38.9463 34.4716L38.6022 32.563C38.5849 32.4674 38.5018 32.3979 38.4047 32.3979V32.3979C38.3556 32.3979 38.3083 32.4159 38.2715 32.4484C35.298 35.07 31.9029 36.9992 28.0263 36.9992ZM30.9524 29.7506C33.2801 29.7506 35.0536 28.7607 37.0058 26.9231C37.3907 26.5607 37.597 26.0502 37.597 25.5216V21.4974C37.597 20.2918 36.5359 19.3539 35.3493 19.5667C28.7452 20.7508 26.5023 22.936 26.5023 25.8427C26.5023 28.553 28.3311 29.7506 30.9524 29.7506Z" fill="#8DE2C3"/>
<path d="M55.6592 37.0004C54.467 37.0004 53.3879 36.2945 52.9103 35.2021L43.77 14.2936C42.9036 12.3116 44.3558 10.0919 46.5188 10.0919H47.399H50.4888C51.8809 10.0919 53.0902 11.0497 53.409 12.4048L56.174 24.156C56.2102 24.3098 56.2554 24.4625 56.328 24.6029C57.5052 26.8822 61.2905 25.9692 61.845 22.6797L64.9028 10.6699C65.2413 9.3406 66.4383 8.41016 67.81 8.41016H71.1348C73.258 8.41016 74.7093 10.5552 73.9195 12.5261L64.8669 35.1164C64.4109 36.2544 63.3082 37.0004 62.0822 37.0004H55.6592Z" fill="#34D399"/>
<path d="M87.0912 36.9989C78.0048 36.9989 70.9441 30.8104 70.9441 20.2097C70.9441 9.78098 78.3521 3.36328 85.9916 3.36328C94.9622 3.36328 99.5344 9.78098 99.5344 18.6626C99.5344 19.1799 99.5163 19.6853 99.486 20.1596C99.396 21.569 98.1793 22.5591 96.767 22.5591H82.6209C80.7954 22.5591 79.3379 24.2225 80.1342 25.8651C81.6317 28.954 84.5233 30.5239 88.1909 30.5239C89.7659 30.5239 91.2351 30.2305 92.6753 29.6817C94.2731 29.0729 96.1655 29.544 96.9825 31.046L97.0247 31.1237C97.7599 32.4755 97.361 34.1863 95.9828 34.8706C93.2652 36.2201 90.1611 36.9989 87.0912 36.9989ZM80.0784 13.6401C79.2295 15.263 80.6911 16.9436 82.5226 16.9436H89.3C90.9568 16.9436 92.3827 15.5686 91.9219 13.9771C91.1694 11.3779 89.2828 9.83828 86.1652 9.83828C83.6729 9.83828 81.3964 11.1204 80.0784 13.6401Z" fill="#50967C"/>
<path d="M97.9094 37.0004C96.2526 37.0004 94.9094 35.6573 94.9094 34.0004V12.1087C94.9094 10.4518 96.2526 9.1087 97.9094 9.1087H99.6799C101.114 9.1087 102.333 10.1595 102.543 11.5785L102.893 13.9367C102.903 14.0009 102.958 14.0484 103.023 14.0484V14.0484C103.066 14.0484 103.108 14.0261 103.132 13.9896C105.575 10.3354 109.28 8.41016 112.803 8.41016C113.324 8.41016 113.786 8.42631 114.204 8.45863C115.708 8.57483 116.506 10.1056 116.15 11.5709L115.928 12.4857C115.547 14.0541 114.002 14.9493 112.39 14.8654C112.155 14.8533 111.908 14.8467 111.643 14.8467C109.15 14.8467 106.108 16.1949 104.186 19.7871C103.979 20.1749 103.887 20.6131 103.887 21.053V34.0004C103.887 35.6573 102.544 37.0004 100.887 37.0004H97.9094Z" fill="#34D399"/>
</svg>
